<?xml version="1.0" standalone="no"?>
<!DOCTYPE svg PUBLIC "-//W3C//DTD SVG 20010904//EN"
 "http://www.w3.org/TR/2001/REC-SVG-20010904/DTD/svg10.dtd">
<svg version="1.0" xmlns="http://www.w3.org/2000/svg"
 width="48.000000pt" height="69.000000pt" viewBox="0 0 300.000000 300.000000"
 preserveAspectRatio="xMidYMid meet">

<g transform="translate(25.000000, 250.000000) scale(0.100000,-0.100000)"
fill="#ffffff" stroke="#000000" stroke-width="4">
<path d="M970 1870 c-203 -32 -407 -152 -521 -307 -71 -96 -130 -213 -145
-288 -46 -232 -23 -404 80 -590 153 -275 475 -442 777 -404 79 10 234 53 243
67 2 4 -10 38 -27 74 -26 54 -35 65 -47 58 -45 -29 -130 -44 -245 -45 -131 0
-184 11 -277 56 -336 163 -469 543 -306 874 75 152 202 263 374 327 51 19 80
22 204 22 123 0 154 -4 203 -22 31 -11 57 -17 57 -11 0 5 13 36 28 69 l29 59
-40 16 c-103 41 -282 62 -387 45z"/>
<path d="M990 1654 c-107 -21 -236 -85 -308 -154 -225 -215 -245 -563 -45
-802 141 -169 404 -247 606 -179 37 12 67 28 67 36 0 18 -50 125 -58 125 -4 0
-29 -7 -56 -15 -137 -42 -303 0 -411 105 -99 95 -149 239 -128 366 25 145 107
257 237 323 58 29 81 35 153 39 47 3 109 -1 137 -7 28 -6 55 -12 60 -12 9 0
56 105 56 126 0 29 -226 65 -310 49z"/>
<path d="M1550 1625 l0 -35 190 0 190 0 0 -510 0 -510 -195 0 -195 0 0 -35 0
-35 230 0 230 0 0 580 0 580 -225 0 -225 0 0 -35z"/>
<path d="M1030 1219 c-55 -22 -100 -85 -100 -139 0 -113 118 -188 223 -142 83
37 114 121 75 200 -36 73 -126 110 -198 81z"/>
</g>
</svg>
