<svg xmlns="http://www.w3.org/2000/svg" width="33" height="33" viewBox="0 0 20 20" version="1.1">
  <!-- <path d="M 8.554688 1.085938 C 13.40625 0.371094 16.296875 2.378906 17.230469 7.109375 C 17.382812 8.117188 16.984375 8.800781 16.023438 9.15625 C 16.472656 9.441406 16.710938 9.84375 16.746094 10.363281 C 16.226562 12.007812 15.183594 13.210938 13.613281 13.976562 C 12.363281 14.398438 11.078125 14.679688 9.757812 14.820312 C 9.707031 14.960938 9.628906 15.082031 9.519531 15.179688 C 11.128906 16.066406 11.371094 17.230469 10.242188 18.675781 C 8.90625 19.222656 7.863281 18.902344 7.109375 17.710938 C 4.328125 18.171875 2.804688 17.003906 2.53125 14.21875 C 2.488281 12.695312 3.128906 11.570312 4.457031 10.84375 C 2.882812 6.328125 4.246094 3.074219 8.554688 1.085938" fill="black" /> -->
  <path d="M 9.519531 3.734375 C 11.601562 3.53125 13.207031 4.296875 14.335938 6.023438 C 13.292969 6.105469 12.25 6.183594 11.203125 6.265625 C 9.863281 7.253906 9.945312 8.136719 11.445312 8.914062 C 12.570312 8.996094 13.695312 9.078125 14.820312 9.15625 C 14.019531 10.035156 13.136719 10.839844 12.167969 11.566406 C 8.949219 12.324219 7.019531 11.078125 6.386719 7.832031 C 6.632812 5.824219 7.675781 4.457031 9.519531 3.734375" fill="white" />
  <path d="M 5.421875 11.925781 C 8.105469 12.078125 8.871094 13.359375 7.710938 15.78125 C 6.355469 16.804688 5.152344 16.644531 4.097656 15.300781 C 3.621094 13.777344 4.0625 12.652344 5.421875 11.925781" fill="white" />
  <!-- <path d="M 8.554688 16.023438 C 9.964844 16.117188 10.367188 16.761719 9.757812 17.953125 C 8.050781 18.199219 7.648438 17.558594 8.554688 16.023438" fill="none" /> -->
</svg>
